<?xml version="1.0" encoding="UTF-8" standalone="no"?>
<!DOCTYPE svg PUBLIC "-//W3C//DTD SVG 1.1//EN" "http://www.w3.org/Graphics/SVG/1.1/DTD/svg11.dtd">
<svg width="100%" height="100%" viewBox="0 0 45 125" version="1.1" xmlns="http://www.w3.org/2000/svg" xmlns:xlink="http://www.w3.org/1999/xlink" xml:space="preserve" xmlns:serif="http://www.serif.com/" style="fill-rule:evenodd;clip-rule:evenodd;stroke-linecap:round;stroke-linejoin:round;stroke-miterlimit:1.5;">
    <g transform="matrix(1,0,0,1,-208.53,-337.5)">
        <g transform="matrix(1,0,0,1,-178.97,20)">
            <path d="M410,320C410,320 411.576,320.788 413.844,321.922C416.903,323.452 418.836,326.579 418.836,330C418.836,333.421 416.903,336.548 413.844,338.078C411.197,339.402 408.457,340.772 405.818,342.091C402.823,343.589 400.93,346.651 400.93,350C400.93,353.349 402.823,356.411 405.818,357.909C408.521,359.261 411.331,360.665 414.037,362.018C417.06,363.53 418.97,366.62 418.97,370C418.97,373.38 417.06,376.47 414.037,377.982C411.403,379.298 408.672,380.664 406.037,381.982C403,383.5 401.081,386.604 401.081,390C401.081,393.396 403,396.5 406.037,398.018C408.6,399.3 411.253,400.626 413.818,401.909C416.883,403.442 418.819,406.574 418.819,410C418.819,413.426 416.883,416.558 413.818,418.091C411.266,419.367 408.627,420.687 406.077,421.962C403.032,423.484 401.109,426.596 401.109,430C401.109,433.404 403.032,436.516 406.077,438.038C408.387,439.193 410,440 410,440" style="fill:none;stroke:black;stroke-width:5px;"/>
        </g>
    </g>
</svg>
