<?xml version="1.0" encoding="UTF-8" standalone="no"?>
<!DOCTYPE svg PUBLIC "-//W3C//DTD SVG 1.1//EN" "http://www.w3.org/Graphics/SVG/1.1/DTD/svg11.dtd">
<svg width="100%" height="100%" viewBox="0 0 441 78" version="1.1" xmlns="http://www.w3.org/2000/svg" xmlns:xlink="http://www.w3.org/1999/xlink" xml:space="preserve" xmlns:serif="http://www.serif.com/" style="fill-rule:evenodd;clip-rule:evenodd;stroke-linecap:round;stroke-linejoin:round;stroke-miterlimit:1.5;">
    <g>
        <rect x="0.5" y="37.339" width="40" height="40" style="fill:rgb(235,235,235);stroke:black;stroke-width:1px;"/>
        <path d="M15.666,58.73C15.666,57.455 15.73,56.308 15.859,55.287C15.988,54.267 16.273,53.357 16.713,52.559C17.154,51.76 17.705,51.162 18.368,50.765C19.03,50.367 19.784,50.168 20.629,50.168C21.589,50.168 22.432,50.416 23.159,50.91C23.886,51.404 24.408,52.163 24.727,53.187C25.046,54.211 25.205,55.604 25.205,57.366C25.205,60.23 24.766,62.339 23.889,63.693C23.012,65.046 21.796,65.723 20.242,65.723C19.462,65.723 18.772,65.555 18.174,65.218C17.576,64.882 17.086,64.395 16.703,63.757C16.319,63.12 16.051,62.368 15.897,61.501C15.743,60.635 15.666,59.711 15.666,58.73ZM17.514,58.107C17.514,59.468 17.616,60.707 17.82,61.824C18.024,62.941 18.364,63.745 18.84,64.235C19.317,64.726 19.884,64.971 20.543,64.971C21.18,64.971 21.712,64.753 22.138,64.316C22.564,63.879 22.876,63.131 23.073,62.071C23.27,61.011 23.368,59.7 23.368,58.139C23.368,55.69 23.135,53.878 22.67,52.704C22.204,51.529 21.435,50.942 20.36,50.942C19.422,50.942 18.713,51.397 18.233,52.306C17.754,53.216 17.514,55.149 17.514,58.107Z" style="fill-rule:nonzero;"/>
    </g>
    <g>
        <rect x="40.5" y="37.339" width="40" height="40" style="fill:rgb(235,235,235);stroke:black;stroke-width:1px;"/>
        <path d="M56.644,53.155L56.45,53.09L56.343,52.209L56.45,52.102C57.166,51.894 58.072,51.561 59.168,51.103C60.264,50.645 61.048,50.294 61.521,50.05L61.8,50.158C61.685,53.294 61.628,55.178 61.628,55.808L61.628,59.793C61.628,60.775 61.639,61.697 61.66,62.56C61.682,63.423 61.714,63.931 61.757,64.085C61.8,64.239 61.873,64.359 61.977,64.445C62.081,64.531 62.226,64.586 62.412,64.611C62.598,64.636 63.153,64.674 64.077,64.724L64.152,64.81L64.152,65.293L64.077,65.379C62.509,65.322 61.402,65.293 60.758,65.293C60.271,65.293 59.078,65.322 57.181,65.379L57.105,65.293L57.105,64.81L57.191,64.724C58.266,64.645 58.88,64.588 59.034,64.552C59.188,64.516 59.306,64.454 59.388,64.364C59.471,64.275 59.537,64.105 59.587,63.854C59.637,63.603 59.678,62.862 59.71,61.63C59.743,60.399 59.759,59.768 59.759,59.74L59.759,55.507C59.759,53.431 59.753,52.303 59.743,52.124C59.732,51.944 59.669,51.855 59.555,51.855C59.526,51.855 59.487,51.862 59.437,51.876C59.386,51.891 59.229,51.955 58.964,52.07L57.9,52.542C57.456,52.736 57.037,52.94 56.644,53.155Z" style="fill-rule:nonzero;"/>
    </g>
    <g>
        <rect x="80.5" y="37.339" width="40" height="40" style="fill:rgb(235,235,235);stroke:black;stroke-width:1px;"/>
        <path d="M95.494,65.401L95.365,65.293L95.365,64.799L98.964,60.986C100.446,59.417 101.406,58.204 101.843,57.344C102.28,56.485 102.498,55.683 102.498,54.938C102.498,54.064 102.233,53.337 101.703,52.757C101.173,52.177 100.457,51.887 99.555,51.887C98.975,51.887 98.47,51.977 98.04,52.156C97.61,52.335 97.322,52.535 97.175,52.757C97.028,52.979 96.815,53.602 96.536,54.626L96.439,54.712L95.999,54.712L95.892,54.616C96.056,53.649 96.171,52.693 96.235,51.748C96.909,51.089 97.537,50.668 98.121,50.485C98.704,50.303 99.315,50.211 99.952,50.211C100.711,50.211 101.438,50.355 102.133,50.641C102.827,50.928 103.386,51.391 103.809,52.032C104.231,52.673 104.442,53.416 104.442,54.261C104.442,54.891 104.319,55.523 104.072,56.157C103.825,56.791 103.463,57.403 102.987,57.994C102.511,58.585 101.861,59.292 101.037,60.116L97.686,63.532L101.929,63.532C103.232,63.532 104.317,63.485 105.184,63.392L105.259,63.478C105.216,63.722 105.194,64.04 105.194,64.434C105.194,64.792 105.216,65.075 105.259,65.283L105.184,65.401C104.668,65.372 103.877,65.347 102.81,65.326C101.743,65.304 101.037,65.293 100.693,65.293C99.999,65.293 99.064,65.302 97.89,65.32C96.715,65.338 95.917,65.365 95.494,65.401Z" style="fill-rule:nonzero;"/>
    </g>
    <g>
        <rect x="120.5" y="37.339" width="40" height="40" style="fill:rgb(235,235,235);stroke:black;stroke-width:1px;"/>
        <path d="M136.117,65.046C135.988,64.201 135.748,63.184 135.397,61.996L135.451,61.834L135.849,61.684L135.999,61.759C136.25,62.418 136.518,62.962 136.805,63.392C137.091,63.822 137.503,64.151 138.04,64.38C138.577,64.61 139.157,64.724 139.78,64.724C140.568,64.724 141.193,64.559 141.655,64.23C142.117,63.901 142.473,63.453 142.724,62.887C142.974,62.321 143.1,61.684 143.1,60.975C143.1,60.023 142.851,59.274 142.353,58.73C141.855,58.186 141.166,57.914 140.285,57.914C139.984,57.914 139.716,57.942 139.479,58C139.243,58.057 138.878,58.186 138.384,58.386L138.266,58.279L138.502,57.108C139.082,57.144 139.469,57.162 139.662,57.162C140.5,57.162 141.164,56.864 141.655,56.27C142.145,55.676 142.391,54.974 142.391,54.165C142.391,53.456 142.135,52.861 141.623,52.381C141.111,51.902 140.479,51.662 139.727,51.662C139.232,51.662 138.765,51.762 138.325,51.962C137.884,52.163 137.521,52.406 137.234,52.693C137.113,52.936 136.919,53.416 136.654,54.132L136.547,54.229L136.063,54.229L135.978,54.132L136.622,51.64C137.517,50.63 138.731,50.125 140.264,50.125C141.431,50.125 142.375,50.435 143.094,51.055C143.814,51.674 144.174,52.453 144.174,53.391C144.174,54.107 143.963,54.764 143.54,55.362C143.118,55.96 142.53,56.524 141.778,57.054C143.017,57.205 143.889,57.575 144.394,58.166C144.899,58.757 145.151,59.471 145.151,60.309C145.151,61.684 144.528,62.921 143.282,64.021C142.036,65.12 140.597,65.669 138.964,65.669C138.477,65.669 138.022,65.628 137.6,65.546C137.177,65.464 136.683,65.297 136.117,65.046Z" style="fill-rule:nonzero;"/>
    </g>
    <g>
        <rect x="160.5" y="37.339" width="40" height="40" style="fill:rgb(235,235,235);stroke:black;stroke-width:1px;"/>
        <path d="M178.534,65.379L178.448,65.293L178.448,64.832L178.534,64.746C179.594,64.717 180.222,64.685 180.419,64.649C180.616,64.613 180.761,64.538 180.854,64.423C180.948,64.309 181.017,64.029 181.064,63.585C181.111,63.141 181.134,62.669 181.134,62.167L181.134,61.373L178.781,61.373C177.413,61.373 176.257,61.394 175.312,61.437L175.129,60.857C176.375,58.522 178.455,55.142 181.37,50.716L182.885,50.104L183.153,50.233C183.075,51.45 183.035,52.958 183.035,54.755L183.003,57.785L183.003,60.008C183.991,60.001 184.754,59.98 185.291,59.944L185.388,60.051C185.373,60.323 185.366,60.52 185.366,60.642C185.373,60.878 185.384,61.111 185.398,61.34L185.291,61.437C184.596,61.394 184.016,61.373 183.551,61.373L183.003,61.373L183.003,62.092C183.003,62.894 183.024,63.464 183.067,63.8C183.11,64.137 183.178,64.354 183.271,64.45C183.365,64.547 183.553,64.618 183.835,64.665C184.118,64.712 184.607,64.738 185.302,64.746L185.398,64.832L185.398,65.293L185.313,65.379C184.052,65.322 182.996,65.293 182.144,65.293C180.754,65.293 179.551,65.322 178.534,65.379ZM176.547,60.008L181.134,60.008L181.23,52.371C180.543,53.352 179.676,54.698 178.631,56.41C177.585,58.121 176.891,59.321 176.547,60.008Z" style="fill-rule:nonzero;"/>
    </g>
    <g>
        <rect x="200.5" y="37.339" width="40" height="40" style="fill:rgb(235,235,235);stroke:black;stroke-width:1px;"/>
        <path d="M216.407,65.143C216.235,64.584 215.881,63.661 215.344,62.372L215.365,62.232L215.741,62.017L215.87,62.049C216.465,63.131 216.835,63.745 216.982,63.892C217.129,64.038 217.464,64.21 217.986,64.407C218.509,64.604 219.061,64.703 219.641,64.703C220.364,64.703 221.005,64.545 221.563,64.23C222.122,63.915 222.537,63.449 222.81,62.833C223.082,62.218 223.218,61.519 223.218,60.739C223.218,59.972 223.083,59.312 222.815,58.757C222.546,58.202 222.136,57.781 221.585,57.495C221.034,57.208 220.439,57.065 219.802,57.065C219.401,57.065 219.037,57.119 218.711,57.226C218.386,57.333 218.113,57.471 217.895,57.64C217.677,57.808 217.417,58.057 217.116,58.386L216.676,58.257L216.794,55.948C216.823,55.511 216.837,55.07 216.837,54.626L216.837,52.714C216.837,52.141 216.819,51.594 216.783,51.071C216.762,50.749 216.751,50.544 216.751,50.458L216.891,50.351C217.986,50.437 219.236,50.48 220.64,50.48C221.707,50.48 222.985,50.437 224.475,50.351L224.518,50.458C224.467,50.809 224.442,51.135 224.442,51.436C224.442,51.586 224.453,51.837 224.475,52.188L224.367,52.252C223.551,52.195 222.455,52.167 221.08,52.167C219.211,52.167 218.126,52.174 217.825,52.188C217.718,53.033 217.643,54.523 217.6,56.657C218.187,56.227 218.717,55.935 219.189,55.781C219.662,55.627 220.174,55.55 220.726,55.55C221.506,55.55 222.255,55.729 222.971,56.087C223.687,56.445 224.222,56.965 224.577,57.645C224.931,58.325 225.108,59.059 225.108,59.847C225.108,61.301 224.509,62.638 223.309,63.859C222.11,65.08 220.575,65.691 218.706,65.691C218.205,65.691 217.791,65.648 217.465,65.562C217.139,65.476 216.787,65.336 216.407,65.143Z" style="fill-rule:nonzero;"/>
    </g>
    <g>
        <rect x="240.5" y="37.339" width="40" height="40" style="fill:rgb(235,235,235);stroke:black;stroke-width:1px;"/>
        <path d="M264.281,50.437L264.281,50.566C263.501,50.731 262.611,51.121 261.612,51.737C260.613,52.353 259.773,53.18 259.093,54.218C258.412,55.257 258.019,56.51 257.911,57.978C258.155,57.806 258.434,57.598 258.749,57.355C259.157,57.047 259.456,56.836 259.646,56.721C259.836,56.607 260.09,56.506 260.409,56.42C260.727,56.334 261.094,56.292 261.51,56.292C262.247,56.292 262.91,56.454 263.497,56.78C264.084,57.106 264.525,57.586 264.818,58.22C265.112,58.854 265.259,59.593 265.259,60.438C265.259,61.634 264.969,62.635 264.389,63.44C263.809,64.246 263.193,64.823 262.541,65.17C261.889,65.517 261.141,65.691 260.296,65.691C258.856,65.691 257.739,65.152 256.944,64.074C256.149,62.996 255.752,61.595 255.752,59.869C255.752,58.723 255.918,57.622 256.251,56.565C256.584,55.509 257.091,54.553 257.771,53.697C258.452,52.841 259.32,52.081 260.376,51.415C261.433,50.749 262.473,50.297 263.497,50.061L264.281,50.437ZM257.707,60.685C257.707,61.394 257.809,62.096 258.013,62.791C258.217,63.485 258.545,64.022 258.996,64.402C259.447,64.781 259.977,64.971 260.586,64.971C261.109,64.971 261.592,64.824 262.036,64.531C262.48,64.237 262.819,63.777 263.051,63.15C263.284,62.524 263.4,61.863 263.4,61.168C263.4,60.474 263.286,59.853 263.057,59.305C262.827,58.757 262.494,58.331 262.058,58.026C261.621,57.722 261.112,57.57 260.532,57.57C260.103,57.57 259.673,57.674 259.243,57.881C258.813,58.089 258.482,58.325 258.25,58.59C258.017,58.855 257.868,59.136 257.804,59.434C257.739,59.731 257.707,60.148 257.707,60.685Z" style="fill-rule:nonzero;"/>
    </g>
    <g>
        <rect x="280.5" y="37.339" width="40" height="40" style="fill:rgb(235,235,235);stroke:black;stroke-width:1px;"/>
        <path d="M296.45,65.379L296.225,65.154C296.482,64.767 297.016,63.936 297.825,62.662L299.791,59.525L301.639,56.506L303.25,53.735C303.594,53.133 303.866,52.646 304.066,52.274L303.959,52.167L300.629,52.167C299.791,52.167 299.046,52.181 298.395,52.209C297.743,52.238 297.36,52.279 297.245,52.333C297.131,52.387 297.05,52.453 297.003,52.532C296.957,52.611 296.905,52.883 296.848,53.348L296.654,54.863L296.558,54.949L296.106,54.949L296.01,54.863L296.063,51.919C296.063,51.583 296.046,51.064 296.01,50.362L296.225,50.254C296.618,50.297 297.419,50.344 298.625,50.394C299.832,50.444 300.64,50.469 301.048,50.469C302.502,50.469 304.088,50.419 305.807,50.319L305.893,50.405L305.893,50.963L304.346,53.703C303.408,55.378 302.337,57.364 301.134,59.659C299.931,61.954 299.053,63.833 298.502,65.293L298.395,65.379C297.986,65.344 297.678,65.326 297.471,65.326C297.141,65.326 296.801,65.344 296.45,65.379Z" style="fill-rule:nonzero;"/>
    </g>
    <g>
        <rect x="320.5" y="37.339" width="40" height="40" style="fill:rgb(235,235,235);stroke:black;stroke-width:1px;"/>
        <path d="M338.609,57.677C337.814,57.255 337.211,56.77 336.799,56.222C336.388,55.674 336.182,55.01 336.182,54.229C336.182,53.133 336.586,52.193 337.396,51.409C338.205,50.625 339.308,50.233 340.704,50.233C341.413,50.233 342.07,50.356 342.675,50.604C343.28,50.851 343.748,51.219 344.077,51.71C344.407,52.201 344.571,52.747 344.571,53.348C344.571,53.978 344.378,54.582 343.991,55.158C343.604,55.735 342.921,56.32 341.939,56.915L341.939,57.011C342.777,57.412 343.399,57.752 343.803,58.032C344.208,58.311 344.539,58.689 344.797,59.165C345.055,59.641 345.184,60.191 345.184,60.814C345.184,61.666 344.938,62.484 344.448,63.269C343.957,64.053 343.311,64.649 342.509,65.057C341.707,65.465 340.876,65.669 340.017,65.669C338.763,65.669 337.729,65.319 336.912,64.617C336.096,63.915 335.688,62.98 335.688,61.813C335.688,60.868 335.969,60.053 336.531,59.369C337.093,58.685 337.786,58.153 338.609,57.774L338.609,57.677ZM341.112,56.646C341.879,56.166 342.398,55.685 342.67,55.201C342.942,54.718 343.078,54.197 343.078,53.638C343.078,52.815 342.842,52.163 342.369,51.683C341.896,51.203 341.263,50.963 340.468,50.963C339.709,50.963 339.078,51.176 338.577,51.603C338.076,52.029 337.825,52.625 337.825,53.391C337.825,53.971 337.988,54.474 338.314,54.9C338.64,55.326 339.573,55.908 341.112,56.646ZM339.479,58.064C338.634,58.565 338.047,59.104 337.718,59.681C337.388,60.257 337.224,60.911 337.224,61.641C337.224,62.665 337.51,63.469 338.083,64.053C338.656,64.636 339.394,64.928 340.296,64.928C340.912,64.928 341.47,64.785 341.972,64.499C342.473,64.212 342.847,63.82 343.094,63.322C343.341,62.825 343.465,62.282 343.465,61.695C343.465,60.85 343.169,60.191 342.579,59.718C341.988,59.246 340.955,58.694 339.479,58.064Z" style="fill-rule:nonzero;"/>
    </g>
    <g>
        <rect x="360.5" y="37.339" width="40" height="40" style="fill:rgb(235,235,235);stroke:black;stroke-width:1px;"/>
        <path d="M376.429,65.379L376.429,65.175C378.42,64.717 379.984,63.841 381.123,62.549C382.262,61.256 382.903,59.675 383.046,57.806C381.993,59.059 380.815,59.686 379.512,59.686C378.688,59.686 377.97,59.489 377.358,59.095C376.746,58.701 376.293,58.189 375.999,57.559C375.705,56.929 375.559,56.191 375.559,55.346C375.559,53.792 376.026,52.546 376.96,51.608C377.895,50.67 379.053,50.201 380.436,50.201C381.832,50.201 382.962,50.706 383.825,51.715C384.688,52.725 385.119,54.179 385.119,56.077C385.119,56.915 385.04,57.718 384.883,58.488C384.725,59.258 384.428,60.048 383.991,60.857C383.554,61.666 382.976,62.418 382.256,63.113C381.537,63.807 380.724,64.386 379.818,64.848C378.912,65.31 378.019,65.601 377.138,65.723L376.429,65.379ZM377.417,54.648C377.417,55.271 377.526,55.882 377.745,56.479C377.963,57.077 378.298,57.539 378.749,57.865C379.2,58.191 379.73,58.354 380.339,58.354C381.184,58.354 381.864,58.069 382.38,57.5C382.896,56.931 383.153,56.08 383.153,54.949C383.153,53.774 382.899,52.813 382.391,52.064C381.882,51.316 381.184,50.942 380.296,50.942C379.444,50.942 378.751,51.257 378.217,51.887C377.684,52.517 377.417,53.438 377.417,54.648Z" style="fill-rule:nonzero;"/>
    </g>
    <g>
        <rect x="400.5" y="37.339" width="40" height="40" style="fill:rgb(235,235,235);stroke:black;stroke-width:1px;"/>
        <path d="M411.144,53.155L410.95,53.09L410.843,52.209L410.95,52.102C411.666,51.894 412.572,51.561 413.668,51.103C414.764,50.645 415.548,50.294 416.021,50.05L416.3,50.158C416.185,53.294 416.128,55.178 416.128,55.808L416.128,59.793C416.128,60.775 416.139,61.697 416.16,62.56C416.182,63.423 416.214,63.931 416.257,64.085C416.3,64.239 416.373,64.359 416.477,64.445C416.581,64.531 416.726,64.586 416.912,64.611C417.098,64.636 417.653,64.674 418.577,64.724L418.652,64.81L418.652,65.293L418.577,65.379C417.009,65.322 415.902,65.293 415.258,65.293C414.771,65.293 413.578,65.322 411.681,65.379L411.605,65.293L411.605,64.81L411.691,64.724C412.766,64.645 413.38,64.588 413.534,64.552C413.688,64.516 413.806,64.454 413.888,64.364C413.971,64.275 414.037,64.105 414.087,63.854C414.137,63.603 414.178,62.862 414.21,61.63C414.243,60.399 414.259,59.768 414.259,59.74L414.259,55.507C414.259,53.431 414.253,52.303 414.243,52.124C414.232,51.944 414.169,51.855 414.055,51.855C414.026,51.855 413.987,51.862 413.937,51.876C413.886,51.891 413.729,51.955 413.464,52.07L412.4,52.542C411.956,52.736 411.537,52.94 411.144,53.155Z" style="fill-rule:nonzero;"/>
        <path d="M421.166,58.73C421.166,57.455 421.23,56.308 421.359,55.287C421.488,54.267 421.773,53.357 422.213,52.559C422.654,51.76 423.205,51.162 423.868,50.765C424.53,50.367 425.284,50.168 426.129,50.168C427.089,50.168 427.932,50.416 428.659,50.91C429.386,51.404 429.908,52.163 430.227,53.187C430.546,54.211 430.705,55.604 430.705,57.366C430.705,60.23 430.266,62.339 429.389,63.693C428.512,65.046 427.296,65.723 425.742,65.723C424.962,65.723 424.272,65.555 423.674,65.218C423.076,64.882 422.586,64.395 422.203,63.757C421.819,63.12 421.551,62.368 421.397,61.501C421.243,60.635 421.166,59.711 421.166,58.73ZM423.014,58.107C423.014,59.468 423.116,60.707 423.32,61.824C423.524,62.941 423.864,63.745 424.34,64.235C424.817,64.726 425.384,64.971 426.043,64.971C426.68,64.971 427.212,64.753 427.638,64.316C428.064,63.879 428.376,63.131 428.573,62.071C428.77,61.011 428.868,59.7 428.868,58.139C428.868,55.69 428.635,53.878 428.17,52.704C427.704,51.529 426.935,50.942 425.86,50.942C424.922,50.942 424.213,51.397 423.733,52.306C423.254,53.216 423.014,55.149 423.014,58.107Z" style="fill-rule:nonzero;"/>
    </g>
    <path d="M9.265,6.955L9.517,6.955L9.569,7.008C9.577,7.336 9.597,7.617 9.628,7.852C9.749,8.035 9.958,8.185 10.255,8.3C10.552,8.415 10.845,8.473 11.134,8.473C11.548,8.473 11.879,8.361 12.127,8.139C12.375,7.916 12.499,7.65 12.499,7.342C12.499,7.174 12.454,7.028 12.364,6.905C12.274,6.782 12.139,6.681 11.957,6.601C11.775,6.521 11.45,6.426 10.981,6.316C10.579,6.223 10.298,6.149 10.138,6.097C9.978,6.044 9.823,5.955 9.675,5.83C9.526,5.705 9.413,5.552 9.335,5.37C9.257,5.188 9.218,4.988 9.218,4.77C9.218,4.246 9.426,3.827 9.842,3.513C10.258,3.198 10.776,3.041 11.397,3.041C11.659,3.041 11.944,3.077 12.253,3.149C12.562,3.222 12.796,3.291 12.956,3.357L13.009,3.439C12.978,3.596 12.958,4.006 12.95,4.67L12.897,4.723L12.663,4.723L12.61,4.67C12.595,4.432 12.573,4.265 12.546,4.169C12.519,4.073 12.448,3.97 12.335,3.858C12.222,3.747 12.062,3.653 11.854,3.577C11.647,3.501 11.429,3.463 11.198,3.463C10.96,3.463 10.76,3.498 10.598,3.568C10.436,3.639 10.305,3.745 10.205,3.888C10.105,4.03 10.056,4.203 10.056,4.406C10.056,4.555 10.086,4.688 10.146,4.805C10.207,4.922 10.3,5.017 10.425,5.089C10.55,5.161 10.681,5.213 10.817,5.244L11.456,5.408C12.003,5.541 12.395,5.656 12.631,5.754C12.867,5.852 13.05,5.999 13.179,6.196C13.308,6.394 13.372,6.633 13.372,6.914C13.372,7.453 13.149,7.916 12.704,8.303C12.259,8.689 11.687,8.883 10.987,8.883C10.741,8.883 10.436,8.855 10.07,8.801C9.705,8.746 9.394,8.686 9.136,8.619L9.106,8.543L9.165,8.15C9.185,8.029 9.196,7.907 9.2,7.784C9.204,7.661 9.208,7.402 9.212,7.008L9.265,6.955Z" style="fill-rule:nonzero;"/>
    <path d="M14.028,4.078L14.028,3.926L14.069,3.867C14.437,3.73 14.733,3.604 14.96,3.486C14.96,2.467 14.948,1.873 14.925,1.705C15.327,1.564 15.657,1.414 15.915,1.254L16.056,1.371C16.017,1.617 15.97,2.332 15.915,3.516C16.11,3.52 16.321,3.521 16.548,3.521C17.009,3.521 17.339,3.51 17.538,3.486L17.579,3.527L17.468,4.02L17.421,4.072C17.222,4.068 17.001,4.066 16.759,4.066C16.54,4.066 16.259,4.068 15.915,4.072L15.88,6.457C15.88,7.008 15.893,7.368 15.918,7.538C15.943,7.708 16.014,7.841 16.129,7.937C16.244,8.032 16.415,8.08 16.642,8.08C16.903,8.08 17.146,8.012 17.368,7.875L17.509,8.086C17.415,8.152 17.19,8.348 16.835,8.672C16.632,8.766 16.425,8.812 16.214,8.813C15.335,8.812 14.896,8.387 14.896,7.535C14.896,7.223 14.903,6.957 14.919,6.738C14.923,6.672 14.925,6.604 14.925,6.533L14.925,4.102L14.685,4.102C14.509,4.102 14.308,4.109 14.081,4.125L14.028,4.078Z" style="fill-rule:nonzero;"/>
    <path d="M18.915,4.705L18.687,4.646L18.64,4.588L18.64,3.861C19.335,3.346 20.011,3.088 20.667,3.088C21.116,3.088 21.489,3.172 21.786,3.34C22.083,3.508 22.298,3.718 22.431,3.97C22.563,4.222 22.63,4.516 22.63,4.852L22.601,6.029L22.601,7.775C22.601,8.014 22.617,8.158 22.65,8.209C22.684,8.26 22.722,8.294 22.765,8.312C22.808,8.329 22.888,8.344 23.005,8.355L23.339,8.385L23.386,8.438L23.386,8.672L23.339,8.719C23.054,8.695 22.788,8.684 22.542,8.684C22.308,8.684 22.026,8.695 21.698,8.719L21.61,8.637L21.634,7.693L20.356,8.689C20.142,8.779 19.907,8.824 19.653,8.824C19.341,8.824 19.072,8.768 18.848,8.654C18.623,8.541 18.451,8.383 18.332,8.18C18.213,7.977 18.153,7.73 18.153,7.441C18.153,6.867 18.333,6.419 18.692,6.097C19.052,5.774 20.032,5.5 21.634,5.273C21.634,4.695 21.505,4.288 21.247,4.052C20.989,3.815 20.644,3.697 20.21,3.697C19.983,3.697 19.777,3.73 19.592,3.797C19.406,3.863 19.3,3.917 19.272,3.958C19.245,3.999 19.14,4.238 18.956,4.676L18.915,4.705ZM21.634,5.631C20.54,5.814 19.858,6.012 19.589,6.223C19.319,6.434 19.185,6.76 19.185,7.201C19.185,7.811 19.487,8.115 20.093,8.115C20.612,8.115 21.126,7.814 21.634,7.213L21.634,5.631Z" style="fill-rule:nonzero;"/>
    <path d="M25.923,3.094L26.034,3.17C26.011,3.396 25.993,3.799 25.981,4.377L26.421,3.82C26.565,3.637 26.693,3.495 26.805,3.396C26.916,3.296 27.046,3.219 27.194,3.164C27.343,3.109 27.495,3.082 27.651,3.082C27.823,3.082 27.985,3.117 28.138,3.188L28.179,3.27C28.116,3.789 28.081,4.246 28.073,4.641L27.81,4.641C27.653,4.281 27.401,4.102 27.054,4.102C26.812,4.102 26.601,4.179 26.421,4.333C26.241,4.487 26.121,4.681 26.061,4.913C26,5.146 25.97,5.439 25.97,5.795L25.97,6.445C25.97,6.563 25.978,6.85 25.993,7.307C26.009,7.764 26.025,8.027 26.043,8.098C26.061,8.168 26.088,8.22 26.125,8.253C26.162,8.286 26.211,8.309 26.271,8.32C26.332,8.332 26.61,8.352 27.106,8.379L27.159,8.426L27.159,8.672L27.106,8.725C26.587,8.693 26.044,8.678 25.478,8.678C25.028,8.678 24.56,8.693 24.071,8.725L24.019,8.672L24.019,8.426L24.071,8.379C24.45,8.355 24.664,8.338 24.713,8.326C24.762,8.314 24.805,8.29 24.842,8.253C24.879,8.216 24.904,8.159 24.918,8.083C24.932,8.007 24.947,7.755 24.965,7.327C24.982,6.899 24.991,6.576 24.991,6.357L24.991,5.203C24.991,5.047 24.983,4.834 24.968,4.564C24.952,4.295 24.939,4.129 24.93,4.066C24.92,4.004 24.89,3.958 24.839,3.929C24.788,3.899 24.687,3.885 24.534,3.885L24.042,3.879L23.989,3.832L23.989,3.58L24.036,3.533C24.782,3.443 25.411,3.297 25.923,3.094Z" style="fill-rule:nonzero;"/>
    <path d="M28.683,4.078L28.683,3.926L28.724,3.867C29.091,3.73 29.388,3.604 29.614,3.486C29.614,2.467 29.603,1.873 29.579,1.705C29.981,1.564 30.312,1.414 30.569,1.254L30.71,1.371C30.671,1.617 30.624,2.332 30.569,3.516C30.765,3.52 30.976,3.521 31.202,3.521C31.663,3.521 31.993,3.51 32.192,3.486L32.233,3.527L32.122,4.02L32.075,4.072C31.876,4.068 31.655,4.066 31.413,4.066C31.194,4.066 30.913,4.068 30.569,4.072L30.534,6.457C30.534,7.008 30.547,7.368 30.572,7.538C30.598,7.708 30.668,7.841 30.783,7.937C30.898,8.032 31.069,8.08 31.296,8.08C31.558,8.08 31.8,8.012 32.022,7.875L32.163,8.086C32.069,8.152 31.845,8.348 31.489,8.672C31.286,8.766 31.079,8.812 30.868,8.813C29.989,8.812 29.55,8.387 29.55,7.535C29.55,7.223 29.558,6.957 29.573,6.738C29.577,6.672 29.579,6.604 29.579,6.533L29.579,4.102L29.339,4.102C29.163,4.102 28.962,4.109 28.735,4.125L28.683,4.078Z" style="fill-rule:nonzero;"/>
    <path d="M415.648,7.816L415.461,8.238C415.055,8.5 414.692,8.67 414.374,8.748C414.056,8.826 413.771,8.865 413.521,8.865C413.053,8.865 412.608,8.773 412.188,8.59C411.769,8.406 411.427,8.096 411.163,7.658C410.899,7.221 410.768,6.693 410.768,6.076C410.768,5.666 410.818,5.296 410.92,4.966C411.021,4.636 411.128,4.391 411.239,4.23C411.351,4.07 411.539,3.893 411.805,3.697C412.07,3.502 412.352,3.346 412.648,3.229C412.945,3.111 413.266,3.053 413.609,3.053C414.078,3.053 414.491,3.163 414.849,3.384C415.206,3.604 415.457,3.887 415.602,4.23C415.746,4.574 415.818,4.939 415.818,5.326C415.818,5.447 415.813,5.564 415.801,5.678L415.736,5.742C415.471,5.801 415.113,5.84 414.664,5.859C414.215,5.879 413.918,5.889 413.773,5.889L411.893,5.889C411.9,6.697 412.104,7.293 412.502,7.676C412.9,8.059 413.389,8.25 413.967,8.25C414.24,8.25 414.503,8.203 414.755,8.109C415.007,8.016 415.273,7.885 415.555,7.717L415.648,7.816ZM411.893,5.42C411.963,5.432 412.233,5.445 412.704,5.461C413.175,5.477 413.523,5.484 413.75,5.484C414.293,5.484 414.623,5.475 414.74,5.455C414.744,5.361 414.746,5.289 414.746,5.238C414.746,4.633 414.623,4.183 414.377,3.888C414.131,3.593 413.795,3.445 413.369,3.445C412.904,3.445 412.542,3.611 412.282,3.943C412.022,4.275 411.893,4.768 411.893,5.42Z" style="fill-rule:nonzero;"/>
    <path d="M418.221,3.094L418.332,3.17C418.309,3.432 418.293,3.775 418.285,4.201C418.598,3.943 418.895,3.682 419.176,3.416C419.258,3.342 419.335,3.287 419.407,3.252C419.479,3.217 419.6,3.18 419.768,3.141C419.936,3.102 420.107,3.082 420.283,3.082C420.58,3.082 420.868,3.143 421.147,3.264C421.427,3.385 421.638,3.528 421.78,3.694C421.923,3.86 422.021,4.057 422.076,4.283C422.131,4.51 422.158,4.789 422.158,5.121L422.158,6.152C422.158,6.219 422.168,6.705 422.188,7.611C422.195,7.982 422.236,8.203 422.311,8.273C422.385,8.344 422.627,8.379 423.037,8.379L423.084,8.426L423.084,8.678L423.037,8.725C422.541,8.693 422.205,8.678 422.029,8.678C421.928,8.678 421.643,8.693 421.174,8.725L421.104,8.66C421.154,8.152 421.18,7.49 421.18,6.674L421.18,5.906C421.18,5.445 421.169,5.113 421.147,4.91C421.126,4.707 421.061,4.522 420.951,4.356C420.842,4.19 420.695,4.062 420.512,3.97C420.328,3.878 420.109,3.832 419.855,3.832C419.652,3.832 419.479,3.853 419.334,3.894C419.189,3.935 419.027,4.019 418.848,4.146C418.668,4.272 418.535,4.392 418.449,4.503C418.363,4.614 418.312,4.718 418.294,4.813C418.276,4.909 418.268,5.113 418.268,5.426L418.268,6.445C418.268,6.531 418.275,6.808 418.291,7.274C418.307,7.741 418.323,8.014 418.341,8.092C418.358,8.17 418.385,8.227 418.42,8.262C418.455,8.297 418.498,8.319 418.549,8.329C418.6,8.339 418.811,8.355 419.182,8.379L419.234,8.426L419.234,8.672L419.188,8.725C418.699,8.693 418.229,8.678 417.775,8.678C417.326,8.678 416.857,8.693 416.369,8.725L416.316,8.672L416.316,8.426L416.369,8.379C416.748,8.355 416.962,8.338 417.011,8.326C417.06,8.314 417.103,8.29 417.14,8.253C417.177,8.216 417.202,8.159 417.216,8.083C417.229,8.007 417.245,7.755 417.263,7.327C417.28,6.899 417.289,6.576 417.289,6.357L417.289,5.203C417.289,5.047 417.281,4.834 417.266,4.564C417.25,4.295 417.237,4.129 417.228,4.066C417.218,4.004 417.188,3.958 417.137,3.929C417.086,3.899 416.984,3.885 416.832,3.885L416.34,3.879L416.287,3.832L416.287,3.58L416.334,3.533C417.08,3.443 417.709,3.297 418.221,3.094Z" style="fill-rule:nonzero;"/>
    <path d="M427.145,0.732L427.145,0.486L427.191,0.434C427.938,0.348 428.566,0.203 429.078,0L429.189,0.07C429.146,0.52 429.125,1.42 429.125,2.771L429.125,6.609C429.125,7.004 429.132,7.349 429.146,7.644C429.159,7.938 429.184,8.113 429.219,8.168C429.254,8.223 429.312,8.268 429.392,8.303C429.472,8.338 429.699,8.371 430.074,8.402L430.127,8.449L430.127,8.672L430.074,8.725C429.652,8.697 429.324,8.684 429.09,8.684C428.879,8.684 428.578,8.697 428.188,8.725L428.123,8.66C428.135,8.277 428.141,8.01 428.141,7.857C428.141,7.838 428.143,7.764 428.146,7.635C427.932,7.791 427.717,7.965 427.502,8.156C427.186,8.438 426.979,8.613 426.881,8.684C426.701,8.773 426.445,8.818 426.113,8.818C425.574,8.818 425.116,8.686 424.739,8.42C424.362,8.154 424.094,7.815 423.934,7.403C423.773,6.991 423.693,6.568 423.693,6.135C423.693,5.693 423.776,5.269 423.942,4.86C424.108,4.452 424.345,4.154 424.651,3.967C424.958,3.779 425.292,3.585 425.653,3.384C426.015,3.183 426.373,3.082 426.729,3.082C427.225,3.082 427.697,3.205 428.146,3.451L428.123,2.145C428.115,1.691 428.104,1.376 428.088,1.198C428.072,1.021 428.053,0.915 428.029,0.882C428.006,0.849 427.966,0.824 427.909,0.809C427.853,0.793 427.615,0.785 427.197,0.785L427.145,0.732ZM428.146,4.453C427.904,4.18 427.636,3.971 427.341,3.826C427.046,3.682 426.75,3.609 426.453,3.609C426.125,3.609 425.819,3.698 425.536,3.876C425.253,4.054 425.049,4.317 424.924,4.667C424.799,5.017 424.736,5.396 424.736,5.807C424.736,6.49 424.909,7.039 425.255,7.453C425.601,7.867 426.035,8.074 426.559,8.074C426.844,8.074 427.097,8.009 427.317,7.878C427.538,7.747 427.72,7.57 427.862,7.348C428.005,7.125 428.088,6.902 428.111,6.68C428.135,6.457 428.146,6.049 428.146,5.455L428.146,4.453Z" style="fill-rule:nonzero;"/>
    <path d="M24.25,29.839L20.5,37.339L16.75,29.839L20.5,33.589L24.25,29.839Z"/>
    <path d="M20.5,11.339L20.5,33.589" style="fill:none;stroke:black;stroke-width:1px;"/>
    <path d="M424.25,29.839L420.5,37.339L416.75,29.839L420.5,33.589L424.25,29.839Z"/>
    <path d="M420.5,11.339L420.5,33.589" style="fill:none;stroke:black;stroke-width:1px;"/>
</svg>
