<?xml version="1.0" encoding="UTF-8" standalone="no"?>
<!DOCTYPE svg PUBLIC "-//W3C//DTD SVG 1.1//EN" "http://www.w3.org/Graphics/SVG/1.1/DTD/svg11.dtd">
<svg width="100%" height="100%" viewBox="0 0 441 281" version="1.1" xmlns="http://www.w3.org/2000/svg" xmlns:xlink="http://www.w3.org/1999/xlink" xml:space="preserve" xmlns:serif="http://www.serif.com/" style="fill-rule:evenodd;clip-rule:evenodd;stroke-linecap:round;stroke-linejoin:round;stroke-miterlimit:1.5;">
    <g>
        <circle cx="220.5" cy="80.5" r="20" style="fill:rgb(235,235,235);stroke:black;stroke-width:1px;"/>
        <path d="M216.407,88.304C216.235,87.746 215.881,86.822 215.344,85.533L215.365,85.393L215.741,85.178L215.87,85.21C216.465,86.292 216.835,86.906 216.982,87.053C217.129,87.2 217.464,87.371 217.986,87.568C218.509,87.765 219.061,87.864 219.641,87.864C220.364,87.864 221.005,87.706 221.563,87.391C222.122,87.076 222.537,86.611 222.81,85.995C223.082,85.379 223.218,84.681 223.218,83.9C223.218,83.134 223.083,82.473 222.815,81.918C222.546,81.363 222.136,80.942 221.585,80.656C221.034,80.369 220.439,80.226 219.802,80.226C219.401,80.226 219.037,80.28 218.711,80.387C218.386,80.495 218.113,80.632 217.895,80.801C217.677,80.969 217.417,81.218 217.116,81.547L216.676,81.418L216.794,79.109C216.823,78.672 216.837,78.232 216.837,77.788L216.837,75.875C216.837,75.303 216.819,74.755 216.783,74.232C216.762,73.91 216.751,73.706 216.751,73.62L216.891,73.512C217.986,73.598 219.236,73.641 220.64,73.641C221.707,73.641 222.985,73.598 224.475,73.512L224.518,73.62C224.467,73.971 224.442,74.296 224.442,74.597C224.442,74.748 224.453,74.998 224.475,75.349L224.367,75.414C223.551,75.356 222.455,75.328 221.08,75.328C219.211,75.328 218.126,75.335 217.825,75.349C217.718,76.194 217.643,77.684 217.6,79.818C218.187,79.388 218.717,79.096 219.189,78.942C219.662,78.788 220.174,78.711 220.726,78.711C221.506,78.711 222.255,78.89 222.971,79.249C223.687,79.607 224.222,80.126 224.577,80.806C224.931,81.486 225.108,82.221 225.108,83.008C225.108,84.462 224.509,85.799 223.309,87.021C222.11,88.242 220.575,88.852 218.706,88.852C218.205,88.852 217.791,88.809 217.465,88.723C217.139,88.637 216.787,88.498 216.407,88.304Z" style="fill-rule:nonzero;"/>
    </g>
    <path d="M126.885,131.5L118.5,131.5L123.531,124.792C122.693,127.307 124.37,130.661 126.885,131.5Z"/>
    <path d="M202.5,89.5C202.5,89.5 142.388,119.556 123.867,128.817" style="fill:none;stroke:black;stroke-width:1px;"/>
    <path d="M320.262,121.065L325.638,127.5L317.264,127.939C319.732,126.97 321.231,123.533 320.262,121.065Z"/>
    <path d="M238.5,89.5C238.5,89.5 301.003,116.757 320.138,125.102" style="fill:none;stroke:black;stroke-width:1px;"/>
    <g>
        <circle cx="100.5" cy="140.5" r="20" style="fill:rgb(235,235,235);stroke:black;stroke-width:1px;"/>
        <path d="M95.494,148.562L95.365,148.455L95.365,147.96L98.964,144.147C100.446,142.579 101.406,141.365 101.843,140.505C102.28,139.646 102.498,138.844 102.498,138.099C102.498,137.225 102.233,136.499 101.703,135.918C101.173,135.338 100.457,135.048 99.555,135.048C98.975,135.048 98.47,135.138 98.04,135.317C97.61,135.496 97.322,135.696 97.175,135.918C97.028,136.14 96.815,136.764 96.536,137.788L96.439,137.874L95.999,137.874L95.892,137.777C96.056,136.81 96.171,135.854 96.235,134.909C96.909,134.25 97.537,133.829 98.121,133.646C98.704,133.464 99.315,133.373 99.952,133.373C100.711,133.373 101.438,133.516 102.133,133.802C102.827,134.089 103.386,134.552 103.809,135.193C104.231,135.834 104.442,136.577 104.442,137.422C104.442,138.053 104.319,138.685 104.072,139.318C103.825,139.952 103.463,140.564 102.987,141.155C102.511,141.746 101.861,142.453 101.037,143.277L97.686,146.693L101.929,146.693C103.232,146.693 104.317,146.646 105.184,146.553L105.259,146.639C105.216,146.883 105.194,147.201 105.194,147.595C105.194,147.953 105.216,148.236 105.259,148.444L105.184,148.562C104.668,148.533 103.877,148.508 102.81,148.487C101.743,148.465 101.037,148.455 100.693,148.455C99.999,148.455 99.064,148.464 97.89,148.481C96.715,148.499 95.917,148.526 95.494,148.562Z" style="fill-rule:nonzero;"/>
    </g>
    <g>
        <circle cx="20.5" cy="200.5" r="20" style="fill:rgb(235,235,235);stroke:black;stroke-width:1px;"/>
        <path d="M15.666,201.891C15.666,200.616 15.73,199.469 15.859,198.448C15.988,197.428 16.273,196.518 16.713,195.72C17.154,194.921 17.705,194.323 18.368,193.926C19.03,193.528 19.784,193.33 20.629,193.33C21.589,193.33 22.432,193.577 23.159,194.071C23.886,194.565 24.408,195.324 24.727,196.348C25.046,197.372 25.205,198.765 25.205,200.527C25.205,203.391 24.766,205.5 23.889,206.854C23.012,208.208 21.796,208.884 20.242,208.884C19.462,208.884 18.772,208.716 18.174,208.379C17.576,208.043 17.086,207.556 16.703,206.918C16.319,206.281 16.051,205.529 15.897,204.663C15.743,203.796 15.666,202.872 15.666,201.891ZM17.514,201.268C17.514,202.629 17.616,203.868 17.82,204.985C18.024,206.102 18.364,206.906 18.84,207.396C19.317,207.887 19.884,208.132 20.543,208.132C21.18,208.132 21.712,207.914 22.138,207.477C22.564,207.04 22.876,206.292 23.073,205.232C23.27,204.172 23.368,202.861 23.368,201.3C23.368,198.851 23.135,197.039 22.67,195.865C22.204,194.69 21.435,194.103 20.36,194.103C19.422,194.103 18.713,194.558 18.233,195.467C17.754,196.377 17.514,198.31 17.514,201.268Z" style="fill-rule:nonzero;"/>
    </g>
    <g>
        <circle cx="340.5" cy="140.5" r="20" style="fill:rgb(235,235,235);stroke:black;stroke-width:1px;"/>
        <path d="M338.609,140.838C337.814,140.416 337.211,139.931 336.799,139.383C336.388,138.835 336.182,138.171 336.182,137.39C336.182,136.294 336.586,135.354 337.396,134.57C338.205,133.786 339.308,133.394 340.704,133.394C341.413,133.394 342.07,133.518 342.675,133.765C343.28,134.012 343.748,134.381 344.077,134.871C344.407,135.362 344.571,135.908 344.571,136.509C344.571,137.139 344.378,137.743 343.991,138.319C343.604,138.896 342.921,139.481 341.939,140.076L341.939,140.172C342.777,140.573 343.399,140.914 343.803,141.193C344.208,141.472 344.539,141.85 344.797,142.326C345.055,142.802 345.184,143.352 345.184,143.975C345.184,144.827 344.938,145.646 344.448,146.43C343.957,147.214 343.311,147.81 342.509,148.218C341.707,148.626 340.876,148.831 340.017,148.831C338.763,148.831 337.729,148.48 336.912,147.778C336.096,147.076 335.688,146.141 335.688,144.974C335.688,144.029 335.969,143.214 336.531,142.53C337.093,141.846 337.786,141.315 338.609,140.935L338.609,140.838ZM341.112,139.807C341.879,139.327 342.398,138.846 342.67,138.362C342.942,137.879 343.078,137.358 343.078,136.799C343.078,135.976 342.842,135.324 342.369,134.844C341.896,134.364 341.263,134.125 340.468,134.125C339.709,134.125 339.078,134.338 338.577,134.764C338.076,135.19 337.825,135.786 337.825,136.552C337.825,137.132 337.988,137.635 338.314,138.062C338.64,138.488 339.573,139.069 341.112,139.807ZM339.479,141.225C338.634,141.726 338.047,142.265 337.718,142.842C337.388,143.418 337.224,144.072 337.224,144.802C337.224,145.826 337.51,146.63 338.083,147.214C338.656,147.798 339.394,148.089 340.296,148.089C340.912,148.089 341.47,147.946 341.972,147.66C342.473,147.373 342.847,146.981 343.094,146.483C343.341,145.986 343.465,145.443 343.465,144.856C343.465,144.011 343.169,143.352 342.579,142.879C341.988,142.407 340.955,141.855 339.479,141.225Z" style="fill-rule:nonzero;"/>
    </g>
    <g>
        <rect x="0.5" y="0.5" width="40" height="40" style="fill:rgb(235,235,235);stroke:black;stroke-width:1px;"/>
        <path d="M15.666,21.891C15.666,20.616 15.73,19.469 15.859,18.448C15.988,17.428 16.273,16.518 16.713,15.72C17.154,14.921 17.705,14.323 18.368,13.926C19.03,13.528 19.784,13.33 20.629,13.33C21.589,13.33 22.432,13.577 23.159,14.071C23.886,14.565 24.408,15.324 24.727,16.348C25.046,17.372 25.205,18.765 25.205,20.527C25.205,23.391 24.766,25.5 23.889,26.854C23.012,28.208 21.796,28.884 20.242,28.884C19.462,28.884 18.772,28.716 18.174,28.379C17.576,28.043 17.086,27.556 16.703,26.918C16.319,26.281 16.051,25.529 15.897,24.663C15.743,23.796 15.666,22.872 15.666,21.891ZM17.514,21.268C17.514,22.629 17.616,23.868 17.82,24.985C18.024,26.102 18.364,26.906 18.84,27.396C19.317,27.887 19.884,28.132 20.543,28.132C21.18,28.132 21.712,27.914 22.138,27.477C22.564,27.04 22.876,26.292 23.073,25.232C23.27,24.172 23.368,22.861 23.368,21.3C23.368,18.851 23.135,17.039 22.67,15.865C22.204,14.69 21.435,14.103 20.36,14.103C19.422,14.103 18.713,14.558 18.233,15.467C17.754,16.377 17.514,18.31 17.514,21.268Z" style="fill-rule:nonzero;"/>
    </g>
    <g>
        <rect x="40.5" y="0.5" width="40" height="40" style="fill:rgb(235,235,235);stroke:black;stroke-width:1px;"/>
        <path d="M56.644,16.316L56.45,16.251L56.343,15.371L56.45,15.263C57.166,15.056 58.072,14.722 59.168,14.264C60.264,13.806 61.048,13.455 61.521,13.211L61.8,13.319C61.685,16.456 61.628,18.339 61.628,18.969L61.628,22.955C61.628,23.936 61.639,24.858 61.66,25.721C61.682,26.584 61.714,27.092 61.757,27.246C61.8,27.4 61.873,27.52 61.977,27.606C62.081,27.692 62.226,27.747 62.412,27.772C62.598,27.798 63.153,27.835 64.077,27.885L64.152,27.971L64.152,28.455L64.077,28.541C62.509,28.483 61.402,28.455 60.758,28.455C60.271,28.455 59.078,28.483 57.181,28.541L57.105,28.455L57.105,27.971L57.191,27.885C58.266,27.806 58.88,27.749 59.034,27.713C59.188,27.678 59.306,27.615 59.388,27.525C59.471,27.436 59.537,27.266 59.587,27.015C59.637,26.764 59.678,26.023 59.71,24.792C59.743,23.56 59.759,22.93 59.759,22.901L59.759,18.668C59.759,16.592 59.753,15.464 59.743,15.285C59.732,15.106 59.669,15.016 59.555,15.016C59.526,15.016 59.487,15.023 59.437,15.038C59.386,15.052 59.229,15.116 58.964,15.231L57.9,15.704C57.456,15.897 57.037,16.101 56.644,16.316Z" style="fill-rule:nonzero;"/>
    </g>
    <g>
        <rect x="80.5" y="0.5" width="40" height="40" style="fill:rgb(235,235,235);stroke:black;stroke-width:1px;"/>
        <path d="M95.494,28.562L95.365,28.455L95.365,27.96L98.964,24.147C100.446,22.579 101.406,21.365 101.843,20.505C102.28,19.646 102.498,18.844 102.498,18.099C102.498,17.225 102.233,16.499 101.703,15.918C101.173,15.338 100.457,15.048 99.555,15.048C98.975,15.048 98.47,15.138 98.04,15.317C97.61,15.496 97.322,15.696 97.175,15.918C97.028,16.14 96.815,16.764 96.536,17.788L96.439,17.874L95.999,17.874L95.892,17.777C96.056,16.81 96.171,15.854 96.235,14.909C96.909,14.25 97.537,13.829 98.121,13.646C98.704,13.464 99.315,13.373 99.952,13.373C100.711,13.373 101.438,13.516 102.133,13.802C102.827,14.089 103.386,14.552 103.809,15.193C104.231,15.834 104.442,16.577 104.442,17.422C104.442,18.053 104.319,18.685 104.072,19.318C103.825,19.952 103.463,20.564 102.987,21.155C102.511,21.746 101.861,22.453 101.037,23.277L97.686,26.693L101.929,26.693C103.232,26.693 104.317,26.646 105.184,26.553L105.259,26.639C105.216,26.883 105.194,27.201 105.194,27.595C105.194,27.953 105.216,28.236 105.259,28.444L105.184,28.562C104.668,28.533 103.877,28.508 102.81,28.487C101.743,28.465 101.037,28.455 100.693,28.455C99.999,28.455 99.064,28.464 97.89,28.481C96.715,28.499 95.917,28.526 95.494,28.562Z" style="fill-rule:nonzero;"/>
    </g>
    <g>
        <rect x="120.5" y="0.5" width="40" height="40" style="fill:rgb(235,235,235);stroke:black;stroke-width:1px;"/>
        <path d="M136.117,28.208C135.988,27.362 135.748,26.346 135.397,25.157L135.451,24.996L135.849,24.845L135.999,24.92C136.25,25.579 136.518,26.124 136.805,26.553C137.091,26.983 137.503,27.312 138.04,27.542C138.577,27.771 139.157,27.885 139.78,27.885C140.568,27.885 141.193,27.721 141.655,27.391C142.117,27.062 142.473,26.614 142.724,26.048C142.974,25.483 143.1,24.845 143.1,24.136C143.1,23.184 142.851,22.435 142.353,21.891C141.855,21.347 141.166,21.075 140.285,21.075C139.984,21.075 139.716,21.103 139.479,21.161C139.243,21.218 138.878,21.347 138.384,21.547L138.266,21.44L138.502,20.269C139.082,20.305 139.469,20.323 139.662,20.323C140.5,20.323 141.164,20.026 141.655,19.431C142.145,18.837 142.391,18.135 142.391,17.326C142.391,16.617 142.135,16.022 141.623,15.542C141.111,15.063 140.479,14.823 139.727,14.823C139.232,14.823 138.765,14.923 138.325,15.124C137.884,15.324 137.521,15.568 137.234,15.854C137.113,16.097 136.919,16.577 136.654,17.293L136.547,17.39L136.063,17.39L135.978,17.293L136.622,14.801C137.517,13.792 138.731,13.287 140.264,13.287C141.431,13.287 142.375,13.596 143.094,14.216C143.814,14.835 144.174,15.614 144.174,16.552C144.174,17.268 143.963,17.925 143.54,18.523C143.118,19.121 142.53,19.685 141.778,20.215C143.017,20.366 143.889,20.736 144.394,21.327C144.899,21.918 145.151,22.632 145.151,23.47C145.151,24.845 144.528,26.082 143.282,27.182C142.036,28.281 140.597,28.831 138.964,28.831C138.477,28.831 138.022,28.789 137.6,28.707C137.177,28.625 136.683,28.458 136.117,28.208Z" style="fill-rule:nonzero;"/>
    </g>
    <g>
        <rect x="160.5" y="0.5" width="40" height="40" style="fill:rgb(235,235,235);stroke:black;stroke-width:1px;"/>
        <path d="M178.534,28.541L178.448,28.455L178.448,27.993L178.534,27.907C179.594,27.878 180.222,27.846 180.419,27.81C180.616,27.774 180.761,27.699 180.854,27.584C180.948,27.47 181.017,27.191 181.064,26.747C181.111,26.303 181.134,25.83 181.134,25.329L181.134,24.534L178.781,24.534C177.413,24.534 176.257,24.555 175.312,24.598L175.129,24.018C176.375,21.683 178.455,18.303 181.37,13.877L182.885,13.265L183.153,13.394C183.075,14.611 183.035,16.119 183.035,17.917L183.003,20.946L183.003,23.169C183.991,23.162 184.754,23.141 185.291,23.105L185.388,23.212C185.373,23.485 185.366,23.681 185.366,23.803C185.373,24.04 185.384,24.272 185.398,24.501L185.291,24.598C184.596,24.555 184.016,24.534 183.551,24.534L183.003,24.534L183.003,25.253C183.003,26.056 183.024,26.625 183.067,26.961C183.11,27.298 183.178,27.515 183.271,27.611C183.365,27.708 183.553,27.78 183.835,27.826C184.118,27.873 184.607,27.9 185.302,27.907L185.398,27.993L185.398,28.455L185.313,28.541C184.052,28.483 182.996,28.455 182.144,28.455C180.754,28.455 179.551,28.483 178.534,28.541ZM176.547,23.169L181.134,23.169L181.23,15.532C180.543,16.513 179.676,17.859 178.631,19.571C177.585,21.282 176.891,22.482 176.547,23.169Z" style="fill-rule:nonzero;"/>
    </g>
    <g>
        <rect x="200.5" y="0.5" width="40" height="40" style="fill:rgb(235,235,235);stroke:black;stroke-width:1px;"/>
        <path d="M216.407,28.304C216.235,27.746 215.881,26.822 215.344,25.533L215.365,25.393L215.741,25.178L215.87,25.21C216.465,26.292 216.835,26.906 216.982,27.053C217.129,27.2 217.464,27.371 217.986,27.568C218.509,27.765 219.061,27.864 219.641,27.864C220.364,27.864 221.005,27.706 221.563,27.391C222.122,27.076 222.537,26.611 222.81,25.995C223.082,25.379 223.218,24.681 223.218,23.9C223.218,23.134 223.083,22.473 222.815,21.918C222.546,21.363 222.136,20.942 221.585,20.656C221.034,20.369 220.439,20.226 219.802,20.226C219.401,20.226 219.037,20.28 218.711,20.387C218.386,20.495 218.113,20.632 217.895,20.801C217.677,20.969 217.417,21.218 217.116,21.547L216.676,21.418L216.794,19.109C216.823,18.672 216.837,18.232 216.837,17.788L216.837,15.875C216.837,15.303 216.819,14.755 216.783,14.232C216.762,13.91 216.751,13.706 216.751,13.62L216.891,13.512C217.986,13.598 219.236,13.641 220.64,13.641C221.707,13.641 222.985,13.598 224.475,13.512L224.518,13.62C224.467,13.971 224.442,14.296 224.442,14.597C224.442,14.748 224.453,14.998 224.475,15.349L224.367,15.414C223.551,15.356 222.455,15.328 221.08,15.328C219.211,15.328 218.126,15.335 217.825,15.349C217.718,16.194 217.643,17.684 217.6,19.818C218.187,19.388 218.717,19.096 219.189,18.942C219.662,18.788 220.174,18.711 220.726,18.711C221.506,18.711 222.255,18.89 222.971,19.249C223.687,19.607 224.222,20.126 224.577,20.806C224.931,21.486 225.108,22.221 225.108,23.008C225.108,24.462 224.509,25.799 223.309,27.021C222.11,28.242 220.575,28.852 218.706,28.852C218.205,28.852 217.791,28.809 217.465,28.723C217.139,28.637 216.787,28.498 216.407,28.304Z" style="fill-rule:nonzero;"/>
    </g>
    <g>
        <rect x="240.5" y="0.5" width="40" height="40" style="fill:rgb(235,235,235);stroke:black;stroke-width:1px;"/>
        <path d="M264.281,13.598L264.281,13.727C263.501,13.892 262.611,14.282 261.612,14.898C260.613,15.514 259.773,16.341 259.093,17.379C258.412,18.418 258.019,19.671 257.911,21.139C258.155,20.967 258.434,20.76 258.749,20.516C259.157,20.208 259.456,19.997 259.646,19.882C259.836,19.768 260.09,19.667 260.409,19.582C260.727,19.496 261.094,19.453 261.51,19.453C262.247,19.453 262.91,19.616 263.497,19.941C264.084,20.267 264.525,20.747 264.818,21.381C265.112,22.015 265.259,22.754 265.259,23.599C265.259,24.795 264.969,25.796 264.389,26.602C263.809,27.407 263.193,27.984 262.541,28.331C261.889,28.678 261.141,28.852 260.296,28.852C258.856,28.852 257.739,28.313 256.944,27.235C256.149,26.158 255.752,24.756 255.752,23.03C255.752,21.884 255.918,20.783 256.251,19.727C256.584,18.67 257.091,17.714 257.771,16.858C258.452,16.003 259.32,15.242 260.376,14.576C261.433,13.91 262.473,13.458 263.497,13.222L264.281,13.598ZM257.707,23.846C257.707,24.555 257.809,25.257 258.013,25.952C258.217,26.646 258.545,27.183 258.996,27.563C259.447,27.943 259.977,28.132 260.586,28.132C261.109,28.132 261.592,27.986 262.036,27.692C262.48,27.398 262.819,26.938 263.051,26.312C263.284,25.685 263.4,25.024 263.4,24.33C263.4,23.635 263.286,23.014 263.057,22.466C262.827,21.918 262.494,21.492 262.058,21.188C261.621,20.883 261.112,20.731 260.532,20.731C260.103,20.731 259.673,20.835 259.243,21.042C258.813,21.25 258.482,21.486 258.25,21.751C258.017,22.016 257.868,22.298 257.804,22.595C257.739,22.892 257.707,23.309 257.707,23.846Z" style="fill-rule:nonzero;"/>
    </g>
    <g>
        <rect x="280.5" y="0.5" width="40" height="40" style="fill:rgb(235,235,235);stroke:black;stroke-width:1px;"/>
        <path d="M296.45,28.541L296.225,28.315C296.482,27.928 297.016,27.097 297.825,25.823L299.791,22.686L301.639,19.667L303.25,16.896C303.594,16.294 303.866,15.807 304.066,15.435L303.959,15.328L300.629,15.328C299.791,15.328 299.046,15.342 298.395,15.371C297.743,15.399 297.36,15.44 297.245,15.494C297.131,15.548 297.05,15.614 297.003,15.693C296.957,15.772 296.905,16.044 296.848,16.509L296.654,18.024L296.558,18.11L296.106,18.11L296.01,18.024L296.063,15.081C296.063,14.744 296.046,14.225 296.01,13.523L296.225,13.416C296.618,13.458 297.419,13.505 298.625,13.555C299.832,13.605 300.64,13.63 301.048,13.63C302.502,13.63 304.088,13.58 305.807,13.48L305.893,13.566L305.893,14.125L304.346,16.864C303.408,18.54 302.337,20.525 301.134,22.82C299.931,25.116 299.053,26.994 298.502,28.455L298.395,28.541C297.986,28.505 297.678,28.487 297.471,28.487C297.141,28.487 296.801,28.505 296.45,28.541Z" style="fill-rule:nonzero;"/>
    </g>
    <g>
        <rect x="320.5" y="0.5" width="40" height="40" style="fill:rgb(235,235,235);stroke:black;stroke-width:1px;"/>
        <path d="M338.609,20.838C337.814,20.416 337.211,19.931 336.799,19.383C336.388,18.835 336.182,18.171 336.182,17.39C336.182,16.294 336.586,15.354 337.396,14.57C338.205,13.786 339.308,13.394 340.704,13.394C341.413,13.394 342.07,13.518 342.675,13.765C343.28,14.012 343.748,14.381 344.077,14.871C344.407,15.362 344.571,15.908 344.571,16.509C344.571,17.139 344.378,17.743 343.991,18.319C343.604,18.896 342.921,19.481 341.939,20.076L341.939,20.172C342.777,20.573 343.399,20.914 343.803,21.193C344.208,21.472 344.539,21.85 344.797,22.326C345.055,22.802 345.184,23.352 345.184,23.975C345.184,24.827 344.938,25.646 344.448,26.43C343.957,27.214 343.311,27.81 342.509,28.218C341.707,28.626 340.876,28.831 340.017,28.831C338.763,28.831 337.729,28.48 336.912,27.778C336.096,27.076 335.688,26.141 335.688,24.974C335.688,24.029 335.969,23.214 336.531,22.53C337.093,21.846 337.786,21.315 338.609,20.935L338.609,20.838ZM341.112,19.807C341.879,19.327 342.398,18.846 342.67,18.362C342.942,17.879 343.078,17.358 343.078,16.799C343.078,15.976 342.842,15.324 342.369,14.844C341.896,14.364 341.263,14.125 340.468,14.125C339.709,14.125 339.078,14.338 338.577,14.764C338.076,15.19 337.825,15.786 337.825,16.552C337.825,17.132 337.988,17.635 338.314,18.062C338.64,18.488 339.573,19.069 341.112,19.807ZM339.479,21.225C338.634,21.726 338.047,22.265 337.718,22.842C337.388,23.418 337.224,24.072 337.224,24.802C337.224,25.826 337.51,26.63 338.083,27.214C338.656,27.798 339.394,28.089 340.296,28.089C340.912,28.089 341.47,27.946 341.972,27.66C342.473,27.373 342.847,26.981 343.094,26.483C343.341,25.986 343.465,25.443 343.465,24.856C343.465,24.011 343.169,23.352 342.579,22.879C341.988,22.407 340.955,21.855 339.479,21.225Z" style="fill-rule:nonzero;"/>
    </g>
    <g>
        <rect x="360.5" y="0.5" width="40" height="40" style="fill:rgb(235,235,235);stroke:black;stroke-width:1px;"/>
        <path d="M376.429,28.541L376.429,28.336C378.42,27.878 379.984,27.003 381.123,25.71C382.262,24.417 382.903,22.836 383.046,20.967C381.993,22.221 380.815,22.847 379.512,22.847C378.688,22.847 377.97,22.65 377.358,22.256C376.746,21.862 376.293,21.35 375.999,20.72C375.705,20.09 375.559,19.352 375.559,18.507C375.559,16.953 376.026,15.707 376.96,14.769C377.895,13.831 379.053,13.362 380.436,13.362C381.832,13.362 382.962,13.867 383.825,14.876C384.688,15.886 385.119,17.34 385.119,19.238C385.119,20.076 385.04,20.88 384.883,21.649C384.725,22.419 384.428,23.209 383.991,24.018C383.554,24.827 382.976,25.579 382.256,26.274C381.537,26.969 380.724,27.547 379.818,28.009C378.912,28.471 378.019,28.763 377.138,28.884L376.429,28.541ZM377.417,17.809C377.417,18.432 377.526,19.043 377.745,19.641C377.963,20.239 378.298,20.701 378.749,21.026C379.2,21.352 379.73,21.515 380.339,21.515C381.184,21.515 381.864,21.23 382.38,20.661C382.896,20.092 383.153,19.241 383.153,18.11C383.153,16.935 382.899,15.974 382.391,15.226C381.882,14.477 381.184,14.103 380.296,14.103C379.444,14.103 378.751,14.418 378.217,15.048C377.684,15.679 377.417,16.599 377.417,17.809Z" style="fill-rule:nonzero;"/>
    </g>
    <g>
        <rect x="400.5" y="0.5" width="40" height="40" style="fill:rgb(235,235,235);stroke:black;stroke-width:1px;"/>
        <path d="M411.144,16.316L410.95,16.251L410.843,15.371L410.95,15.263C411.666,15.056 412.572,14.722 413.668,14.264C414.764,13.806 415.548,13.455 416.021,13.211L416.3,13.319C416.185,16.456 416.128,18.339 416.128,18.969L416.128,22.955C416.128,23.936 416.139,24.858 416.16,25.721C416.182,26.584 416.214,27.092 416.257,27.246C416.3,27.4 416.373,27.52 416.477,27.606C416.581,27.692 416.726,27.747 416.912,27.772C417.098,27.798 417.653,27.835 418.577,27.885L418.652,27.971L418.652,28.455L418.577,28.541C417.009,28.483 415.902,28.455 415.258,28.455C414.771,28.455 413.578,28.483 411.681,28.541L411.605,28.455L411.605,27.971L411.691,27.885C412.766,27.806 413.38,27.749 413.534,27.713C413.688,27.678 413.806,27.615 413.888,27.525C413.971,27.436 414.037,27.266 414.087,27.015C414.137,26.764 414.178,26.023 414.21,24.792C414.243,23.56 414.259,22.93 414.259,22.901L414.259,18.668C414.259,16.592 414.253,15.464 414.243,15.285C414.232,15.106 414.169,15.016 414.055,15.016C414.026,15.016 413.987,15.023 413.937,15.038C413.886,15.052 413.729,15.116 413.464,15.231L412.4,15.704C411.956,15.897 411.537,16.101 411.144,16.316Z" style="fill-rule:nonzero;"/>
        <path d="M421.166,21.891C421.166,20.616 421.23,19.469 421.359,18.448C421.488,17.428 421.773,16.518 422.213,15.72C422.654,14.921 423.205,14.323 423.868,13.926C424.53,13.528 425.284,13.33 426.129,13.33C427.089,13.33 427.932,13.577 428.659,14.071C429.386,14.565 429.908,15.324 430.227,16.348C430.546,17.372 430.705,18.765 430.705,20.527C430.705,23.391 430.266,25.5 429.389,26.854C428.512,28.208 427.296,28.884 425.742,28.884C424.962,28.884 424.272,28.716 423.674,28.379C423.076,28.043 422.586,27.556 422.203,26.918C421.819,26.281 421.551,25.529 421.397,24.663C421.243,23.796 421.166,22.872 421.166,21.891ZM423.014,21.268C423.014,22.629 423.116,23.868 423.32,24.985C423.524,26.102 423.864,26.906 424.34,27.396C424.817,27.887 425.384,28.132 426.043,28.132C426.68,28.132 427.212,27.914 427.638,27.477C428.064,27.04 428.376,26.292 428.573,25.232C428.77,24.172 428.868,22.861 428.868,21.3C428.868,18.851 428.635,17.039 428.17,15.865C427.704,14.69 426.935,14.103 425.86,14.103C424.922,14.103 424.213,14.558 423.733,15.467C423.254,16.377 423.014,18.31 423.014,21.268Z" style="fill-rule:nonzero;"/>
    </g>
    <g>
        <circle cx="60.5" cy="260.5" r="20" style="fill:rgb(235,235,235);stroke:black;stroke-width:1px;"/>
        <path d="M56.644,256.316L56.45,256.251L56.343,255.371L56.45,255.263C57.166,255.056 58.072,254.722 59.168,254.264C60.264,253.806 61.048,253.455 61.521,253.211L61.8,253.319C61.685,256.456 61.628,258.339 61.628,258.969L61.628,262.955C61.628,263.936 61.639,264.858 61.66,265.721C61.682,266.584 61.714,267.092 61.757,267.246C61.8,267.4 61.873,267.52 61.977,267.606C62.081,267.692 62.226,267.747 62.412,267.772C62.598,267.798 63.153,267.835 64.077,267.885L64.152,267.971L64.152,268.455L64.077,268.541C62.509,268.483 61.402,268.455 60.758,268.455C60.271,268.455 59.078,268.483 57.181,268.541L57.105,268.455L57.105,267.971L57.191,267.885C58.266,267.806 58.88,267.749 59.034,267.713C59.188,267.678 59.306,267.615 59.388,267.525C59.471,267.436 59.537,267.266 59.587,267.015C59.637,266.764 59.678,266.023 59.71,264.792C59.743,263.56 59.759,262.93 59.759,262.901L59.759,258.668C59.759,256.592 59.753,255.464 59.743,255.285C59.732,255.106 59.669,255.016 59.555,255.016C59.526,255.016 59.487,255.023 59.437,255.038C59.386,255.052 59.229,255.116 58.964,255.231L57.9,255.704C57.456,255.897 57.037,256.101 56.644,256.316Z" style="fill-rule:nonzero;"/>
    </g>
    <g>
        <circle cx="140.5" cy="200.5" r="20" style="fill:rgb(235,235,235);stroke:black;stroke-width:1px;"/>
        <path d="M136.117,208.208C135.988,207.362 135.748,206.346 135.397,205.157L135.451,204.996L135.849,204.845L135.999,204.92C136.25,205.579 136.518,206.124 136.805,206.553C137.091,206.983 137.503,207.312 138.04,207.542C138.577,207.771 139.157,207.885 139.78,207.885C140.568,207.885 141.193,207.721 141.655,207.391C142.117,207.062 142.473,206.614 142.724,206.048C142.974,205.483 143.1,204.845 143.1,204.136C143.1,203.184 142.851,202.435 142.353,201.891C141.855,201.347 141.166,201.075 140.285,201.075C139.984,201.075 139.716,201.103 139.479,201.161C139.243,201.218 138.878,201.347 138.384,201.547L138.266,201.44L138.502,200.269C139.082,200.305 139.469,200.323 139.662,200.323C140.5,200.323 141.164,200.026 141.655,199.431C142.145,198.837 142.391,198.135 142.391,197.326C142.391,196.617 142.135,196.022 141.623,195.542C141.111,195.063 140.479,194.823 139.727,194.823C139.232,194.823 138.765,194.923 138.325,195.124C137.884,195.324 137.521,195.568 137.234,195.854C137.113,196.097 136.919,196.577 136.654,197.293L136.547,197.39L136.063,197.39L135.978,197.293L136.622,194.801C137.517,193.792 138.731,193.287 140.264,193.287C141.431,193.287 142.375,193.596 143.094,194.216C143.814,194.835 144.174,195.614 144.174,196.552C144.174,197.268 143.963,197.925 143.54,198.523C143.118,199.121 142.53,199.685 141.778,200.215C143.017,200.366 143.889,200.736 144.394,201.327C144.899,201.918 145.151,202.632 145.151,203.47C145.151,204.845 144.528,206.082 143.282,207.182C142.036,208.281 140.597,208.831 138.964,208.831C138.477,208.831 138.022,208.789 137.6,208.707C137.177,208.625 136.683,208.458 136.117,208.208Z" style="fill-rule:nonzero;"/>
    </g>
    <g>
        <circle cx="180.5" cy="260.5" r="20" style="fill:rgb(235,235,235);stroke:black;stroke-width:1px;"/>
        <path d="M175.655,264.376L175.655,263.43C175.655,263.18 175.738,262.936 175.902,262.7L181.198,254.407C181.392,254.113 181.529,253.934 181.612,253.87C181.694,253.805 181.828,253.762 182.015,253.741L182.541,253.741C182.67,253.741 182.772,253.754 182.847,253.779C182.922,253.804 182.99,253.859 183.051,253.945C183.112,254.03 183.143,254.155 183.143,254.32L183.143,263.076L185.366,263.076L185.366,264.376L183.143,264.376L183.143,266.9L185.205,266.9L185.205,268.2L179.49,268.2L179.49,266.9L181.553,266.9L181.553,264.376L175.655,264.376ZM177.116,263.076L181.671,263.076L181.671,255.374C181.528,255.796 181.143,256.536 180.516,257.592C179.889,258.648 179.202,259.764 178.454,260.938C177.705,262.113 177.259,262.825 177.116,263.076Z" style="fill-rule:nonzero;"/>
    </g>
    <g>
        <circle cx="260.5" cy="200.5" r="20" style="fill:rgb(235,235,235);stroke:black;stroke-width:1px;"/>
        <path d="M264.281,193.598L264.281,193.727C263.501,193.892 262.611,194.282 261.612,194.898C260.613,195.514 259.773,196.341 259.093,197.379C258.412,198.418 258.019,199.671 257.911,201.139C258.155,200.967 258.434,200.76 258.749,200.516C259.157,200.208 259.456,199.997 259.646,199.882C259.836,199.768 260.09,199.667 260.409,199.582C260.727,199.496 261.094,199.453 261.51,199.453C262.247,199.453 262.91,199.616 263.497,199.941C264.084,200.267 264.525,200.747 264.818,201.381C265.112,202.015 265.259,202.754 265.259,203.599C265.259,204.795 264.969,205.796 264.389,206.602C263.809,207.407 263.193,207.984 262.541,208.331C261.889,208.678 261.141,208.852 260.296,208.852C258.856,208.852 257.739,208.313 256.944,207.235C256.149,206.158 255.752,204.756 255.752,203.03C255.752,201.884 255.918,200.783 256.251,199.727C256.584,198.67 257.091,197.714 257.771,196.858C258.452,196.003 259.32,195.242 260.376,194.576C261.433,193.91 262.473,193.458 263.497,193.222L264.281,193.598ZM257.707,203.846C257.707,204.555 257.809,205.257 258.013,205.952C258.217,206.646 258.545,207.183 258.996,207.563C259.447,207.943 259.977,208.132 260.586,208.132C261.109,208.132 261.592,207.986 262.036,207.692C262.48,207.398 262.819,206.938 263.051,206.312C263.284,205.685 263.4,205.024 263.4,204.33C263.4,203.635 263.286,203.014 263.057,202.466C262.827,201.918 262.494,201.492 262.058,201.188C261.621,200.883 261.112,200.731 260.532,200.731C260.103,200.731 259.673,200.835 259.243,201.042C258.813,201.25 258.482,201.486 258.25,201.751C258.017,202.016 257.868,202.298 257.804,202.595C257.739,202.892 257.707,203.309 257.707,203.846Z" style="fill-rule:nonzero;"/>
    </g>
    <g>
        <circle cx="300.5" cy="260.5" r="20" style="fill:rgb(235,235,235);stroke:black;stroke-width:1px;"/>
        <path d="M296.45,268.541L296.225,268.315C296.482,267.928 297.016,267.097 297.825,265.823L299.791,262.686L301.639,259.667L303.25,256.896C303.594,256.294 303.866,255.807 304.066,255.435L303.959,255.328L300.629,255.328C299.791,255.328 299.046,255.342 298.395,255.371C297.743,255.399 297.36,255.44 297.245,255.494C297.131,255.548 297.05,255.614 297.003,255.693C296.957,255.772 296.905,256.044 296.848,256.509L296.654,258.024L296.558,258.11L296.106,258.11L296.01,258.024L296.063,255.081C296.063,254.744 296.046,254.225 296.01,253.523L296.225,253.416C296.618,253.458 297.419,253.505 298.625,253.555C299.832,253.605 300.64,253.63 301.048,253.63C302.502,253.63 304.088,253.58 305.807,253.48L305.893,253.566L305.893,254.125L304.346,256.864C303.408,258.54 302.337,260.525 301.134,262.82C299.931,265.116 299.053,266.994 298.502,268.455L298.395,268.541C297.986,268.505 297.678,268.487 297.471,268.487C297.141,268.487 296.801,268.505 296.45,268.541Z" style="fill-rule:nonzero;"/>
    </g>
    <g>
        <circle cx="380.5" cy="200.5" r="20" style="fill:rgb(235,235,235);stroke:black;stroke-width:1px;"/>
        <path d="M376.429,208.541L376.429,208.336C378.42,207.878 379.984,207.003 381.123,205.71C382.262,204.417 382.903,202.836 383.046,200.967C381.993,202.221 380.815,202.847 379.512,202.847C378.688,202.847 377.97,202.65 377.358,202.256C376.746,201.862 376.293,201.35 375.999,200.72C375.705,200.09 375.559,199.352 375.559,198.507C375.559,196.953 376.026,195.707 376.96,194.769C377.895,193.831 379.053,193.362 380.436,193.362C381.832,193.362 382.962,193.867 383.825,194.876C384.688,195.886 385.119,197.34 385.119,199.238C385.119,200.076 385.04,200.88 384.883,201.649C384.725,202.419 384.428,203.209 383.991,204.018C383.554,204.827 382.976,205.579 382.256,206.274C381.537,206.969 380.724,207.547 379.818,208.009C378.912,208.471 378.019,208.763 377.138,208.884L376.429,208.541ZM377.417,197.809C377.417,198.432 377.526,199.043 377.745,199.641C377.963,200.239 378.298,200.701 378.749,201.026C379.2,201.352 379.73,201.515 380.339,201.515C381.184,201.515 381.864,201.23 382.38,200.661C382.896,200.092 383.153,199.241 383.153,198.11C383.153,196.935 382.899,195.974 382.391,195.226C381.882,194.477 381.184,194.103 380.296,194.103C379.444,194.103 378.751,194.418 378.217,195.048C377.684,195.679 377.417,196.599 377.417,197.809Z" style="fill-rule:nonzero;"/>
    </g>
    <g>
        <circle cx="420.5" cy="260.5" r="20" style="fill:rgb(235,235,235);stroke:black;stroke-width:1px;"/>
        <path d="M411.144,256.316L410.95,256.251L410.843,255.371L410.95,255.263C411.666,255.056 412.572,254.722 413.668,254.264C414.764,253.806 415.548,253.455 416.021,253.211L416.3,253.319C416.185,256.456 416.128,258.339 416.128,258.969L416.128,262.955C416.128,263.936 416.139,264.858 416.16,265.721C416.182,266.584 416.214,267.092 416.257,267.246C416.3,267.4 416.373,267.52 416.477,267.606C416.581,267.692 416.726,267.747 416.912,267.772C417.098,267.798 417.653,267.835 418.577,267.885L418.652,267.971L418.652,268.455L418.577,268.541C417.009,268.483 415.902,268.455 415.258,268.455C414.771,268.455 413.578,268.483 411.681,268.541L411.605,268.455L411.605,267.971L411.691,267.885C412.766,267.806 413.38,267.749 413.534,267.713C413.688,267.678 413.806,267.615 413.888,267.525C413.971,267.436 414.037,267.266 414.087,267.015C414.137,266.764 414.178,266.023 414.21,264.792C414.243,263.56 414.259,262.93 414.259,262.901L414.259,258.668C414.259,256.592 414.253,255.464 414.243,255.285C414.232,255.106 414.169,255.016 414.055,255.016C414.026,255.016 413.987,255.023 413.937,255.038C413.886,255.052 413.729,255.116 413.464,255.231L412.4,255.704C411.956,255.897 411.537,256.101 411.144,256.316Z" style="fill-rule:nonzero;"/>
        <path d="M421.166,261.891C421.166,260.616 421.23,259.469 421.359,258.448C421.488,257.428 421.773,256.518 422.213,255.72C422.654,254.921 423.205,254.323 423.868,253.926C424.53,253.528 425.284,253.33 426.129,253.33C427.089,253.33 427.932,253.577 428.659,254.071C429.386,254.565 429.908,255.324 430.227,256.348C430.546,257.372 430.705,258.765 430.705,260.527C430.705,263.391 430.266,265.5 429.389,266.854C428.512,268.208 427.296,268.884 425.742,268.884C424.962,268.884 424.272,268.716 423.674,268.379C423.076,268.043 422.586,267.556 422.203,266.918C421.819,266.281 421.551,265.529 421.397,264.663C421.243,263.796 421.166,262.872 421.166,261.891ZM423.014,261.268C423.014,262.629 423.116,263.868 423.32,264.985C423.524,266.102 423.864,266.906 424.34,267.396C424.817,267.887 425.384,268.132 426.043,268.132C426.68,268.132 427.212,267.914 427.638,267.477C428.064,267.04 428.376,266.292 428.573,265.232C428.77,264.172 428.868,262.861 428.868,261.3C428.868,258.851 428.635,257.039 428.17,255.865C427.704,254.69 426.935,254.103 425.86,254.103C424.922,254.103 424.213,254.558 423.733,255.467C423.254,256.377 423.014,258.31 423.014,261.268Z" style="fill-rule:nonzero;"/>
    </g>
    <path d="M20.5,180.5L20.5,40.5" style="fill:none;stroke:black;stroke-width:1px;stroke-dasharray:5,5,0,0;"/>
    <path d="M59.784,240.5L59.784,40.5" style="fill:none;stroke:black;stroke-width:1px;stroke-dasharray:5,5,0,0;"/>
    <path d="M44.748,187.001L36.498,188.501L40.248,181.001C39.873,183.626 42.123,186.626 44.748,187.001Z"/>
    <path d="M84.5,152.5C84.5,152.5 53.455,175.784 41.298,184.901" style="fill:none;stroke:black;stroke-width:1px;"/>
    <path d="M100.5,120.5L100.5,40.5" style="fill:none;stroke:black;stroke-width:1px;stroke-dasharray:5,5,0,0;"/>
    <path d="M140.5,180.5L140.5,40.5" style="fill:none;stroke:black;stroke-width:1px;stroke-dasharray:5,5,0,0;"/>
    <path d="M180.5,240.5L180.5,40.5" style="fill:none;stroke:black;stroke-width:1px;stroke-dasharray:5,5,0,0;"/>
    <path d="M220.5,60.5L220.5,40.5" style="fill:none;stroke:black;stroke-width:1px;stroke-dasharray:5,5,0,0;"/>
    <path d="M260.5,180.5L260.5,40.5" style="fill:none;stroke:black;stroke-width:1px;stroke-dasharray:5,5,0,0;"/>
    <path d="M300.5,240.5L300.5,40.5" style="fill:none;stroke:black;stroke-width:1px;stroke-dasharray:5,5,0,0;"/>
    <path d="M340.5,120.5L340.5,40.5" style="fill:none;stroke:black;stroke-width:1px;stroke-dasharray:5,5,0,0;"/>
    <path d="M380.5,180L380.5,40.5" style="fill:none;stroke:black;stroke-width:1px;stroke-dasharray:5,5,0,0;"/>
    <path d="M420.5,240.5L420.5,40.5" style="fill:none;stroke:black;stroke-width:1px;stroke-dasharray:5,5,0,0;"/>
    <path d="M284.777,186.158L276.5,187.5L280.392,180.073C279.967,182.69 282.16,185.733 284.777,186.158Z"/>
    <path d="M325.069,152.5C325.069,152.5 293.676,175.122 281.368,183.992" style="fill:none;stroke:black;stroke-width:1px;"/>
    <path d="M373.256,173.118L373.5,181.5L366.649,176.666C369.187,177.431 372.491,175.657 373.256,173.118Z"/>
    <path d="M357.931,152.5C357.931,152.5 366.171,167.849 370.662,176.214" style="fill:none;stroke:black;stroke-width:1px;"/>
    <path d="M408.041,236.618L408.284,245L401.433,240.166C403.972,240.931 407.276,239.157 408.041,236.618Z"/>
    <path d="M392.716,216C392.716,216 400.956,231.349 405.446,239.714" style="fill:none;stroke:black;stroke-width:1px;"/>
    <path d="M50.741,234.149L51.5,242.5L44.364,238.097C46.945,238.704 50.133,236.73 50.741,234.149Z"/>
    <path d="M34.784,215.5C34.784,215.5 43.497,229.573 48.342,237.399" style="fill:none;stroke:black;stroke-width:1px;"/>
    <path d="M286.456,237.149L287.216,245.5L280.079,241.097C282.66,241.704 285.849,239.73 286.456,237.149Z"/>
    <path d="M270.5,218.5C270.5,218.5 279.212,232.573 284.057,240.399" style="fill:none;stroke:black;stroke-width:1px;"/>
    <path d="M128.46,175.679L129.5,184L122.22,179.84L127.42,180.88L128.46,175.679Z"/>
    <path d="M111.5,157C111.5,157 122.683,173.775 127.42,180.88" style="fill:none;stroke:black;stroke-width:1px;"/>
    <path d="M169.46,235.679L170.5,244L163.22,239.84L168.42,240.88L169.46,235.679Z"/>
    <path d="M152.5,217C152.5,217 163.683,233.775 168.42,240.88" style="fill:none;stroke:black;stroke-width:1px;"/>
</svg>
